<svg xmlns="http://www.w3.org/2000/svg" width="547.208" height="510" viewBox="0 0 547.208 510"><g transform="translate(-13.86 -31.76)"><g transform="translate(13.86 33.956)"><rect width="58.809" height="360.055" transform="translate(162.795 142.042)" fill="#e0e0e0"/><rect width="58.809" height="335.84" transform="translate(243.865 166.258)" fill="#e0e0e0"/><rect width="58.809" height="144.163" transform="translate(81.726 357.934)" fill="#e0e0e0"/><rect width="58.809" height="78.329" transform="translate(0.656 423.768)" fill="#e0e0e0"/><rect width="58.809" height="236.636" transform="translate(324.935 265.461)" fill="#e0e0e0"/><rect width="58.809" height="158.613" transform="translate(406.004 343.484)" fill="#e0e0e0"/><rect width="58.809" height="79.306" transform="translate(487.074 422.79)" fill="#e0e0e0"/><g transform="translate(0.353)"><path d="M14.466,541.451c-.167,0-.3-113.684-.3-253.889,0-140.253.136-253.912.3-253.912s.3,113.66.3,253.912C14.77,427.766,14.634,541.451,14.466,541.451Z" transform="translate(-14.164 -33.649)" fill="#e0e0e0"/></g><g transform="translate(0 103.608)"><path d="M551.927,123.066c0,.167-120.46.3-269.021.3-148.612,0-269.046-.136-269.046-.3s120.434-.3,269.046-.3C431.467,122.764,551.927,122.9,551.927,123.066Z" transform="translate(-13.86 -122.764)" fill="#e0e0e0"/></g><g transform="translate(0 167.39)"><path d="M551.927,177.926c0,.167-120.46.3-269.021.3-148.612,0-269.046-.136-269.046-.3s120.434-.3,269.046-.3C431.467,177.624,551.927,177.759,551.927,177.926Z" transform="translate(-13.86 -177.624)" fill="#e0e0e0"/></g><g transform="translate(0 231.171)"><path d="M551.927,232.786c0,.167-120.46.3-269.021.3-148.612,0-269.046-.136-269.046-.3s120.434-.3,269.046-.3C431.467,232.484,551.927,232.619,551.927,232.786Z" transform="translate(-13.86 -232.484)" fill="#e0e0e0"/></g><g transform="translate(0 294.953)"><path d="M551.927,287.646c0,.167-120.46.3-269.021.3-148.612,0-269.046-.136-269.046-.3s120.434-.3,269.046-.3C431.467,287.343,551.927,287.479,551.927,287.646Z" transform="translate(-13.86 -287.344)" fill="#e0e0e0"/></g><g transform="translate(0 358.735)"><path d="M551.927,342.506c0,.167-120.46.3-269.021.3-148.612,0-269.046-.135-269.046-.3s120.434-.3,269.046-.3C431.467,342.2,551.927,342.339,551.927,342.506Z" transform="translate(-13.86 -342.204)" fill="#e0e0e0"/></g><g transform="translate(0 422.517)"><path d="M551.927,397.366c0,.167-120.46.3-269.021.3-148.612,0-269.046-.136-269.046-.3s120.434-.3,269.046-.3C431.467,397.063,551.927,397.2,551.927,397.366Z" transform="translate(-13.86 -397.064)" fill="#e0e0e0"/></g><g transform="translate(0 39.826)"><path d="M551.927,68.206c0,.167-120.46.3-269.021.3-148.612,0-269.046-.136-269.046-.3s120.434-.3,269.046-.3C431.467,67.9,551.927,68.039,551.927,68.206Z" transform="translate(-13.86 -67.904)" fill="#e0e0e0"/></g></g><g transform="translate(18.227 535.808)"><path d="M17.616,465.6c0-.167,121.528-.3,271.408-.3,149.932,0,271.433.136,271.433.3s-121.5.3-271.433.3C139.146,465.906,17.616,465.771,17.616,465.6Z" transform="translate(-17.616 -465.301)" fill="#263238"/></g><g transform="translate(236.99 380.598)"><path d="M244.2,451.307s-4.484-30.826-4.11-48.761-.022-38.112-.022-38.112h2.066s-1.4,35.6.124,57.07c1.522,21.454,5.531,29.8,5.531,29.8H244.2" transform="translate(-200.202 -326.495)" fill="#263238"/><path d="M258,335.057a5.449,5.449,0,0,0-1.882-2.757c-1.311-.831-3.029-.485-4.492.033-6.242,2.208-11.776,13.847-14.3,19.969l8.288,27.926C260.571,366.35,263.162,348.144,258,335.057Z" transform="translate(-200.648 -331.802)" fill="#455a64"/><g transform="translate(44.958 1.629)"><path d="M254.474,333.2a1.656,1.656,0,0,1-.121.364c-.107.267-.241.6-.406,1.017-.364.879-.873,2.157-1.482,3.742-1.221,3.171-2.775,7.6-4.166,12.6s-2.338,9.6-2.925,12.946c-.3,1.673-.517,3.031-.659,3.972-.072.439-.13.8-.177,1.081a1.64,1.64,0,0,1-.085.374,1.615,1.615,0,0,1,.016-.383c.03-.286.067-.648.113-1.091.1-.946.287-2.311.552-3.994a118.679,118.679,0,0,1,7.1-25.593c.639-1.578,1.184-2.844,1.585-3.708.19-.4.343-.731.465-.993A1.673,1.673,0,0,1,254.474,333.2Z" transform="translate(-244.447 -333.203)" fill="#263238"/></g><path d="M243.076,384.921A25.287,25.287,0,0,1,230.3,363.688c-.3-6.2,1.606-12.279,3.762-18.1a2.335,2.335,0,0,1,.878-1.314,2.228,2.228,0,0,1,2.118.33c5.645,3.215,9.065,9.343,10.885,15.579A31.431,31.431,0,0,1,249.223,373a21.294,21.294,0,0,1-6.147,11.922" transform="translate(-201.795 -329.799)" fill="#455a64"/><g transform="translate(35.771 18.871)"><path d="M242.056,384.284a1.549,1.549,0,0,1-.03-.374c-.006-.283-.012-.637-.021-1.072,0-.93-.041-2.276-.116-3.937a107.858,107.858,0,0,0-1.442-12.9c-.863-5-1.908-9.481-2.679-12.718-.38-1.583-.692-2.882-.92-3.833-.1-.423-.177-.77-.24-1.045a1.505,1.505,0,0,1-.06-.371,1.556,1.556,0,0,1,.128.353c.079.272.179.612.3,1.029.256.9.608,2.2,1.025,3.809.831,3.225,1.916,7.7,2.781,12.719a94.291,94.291,0,0,1,1.346,12.948c.045,1.666.047,3.016.008,3.947-.017.435-.033.789-.044,1.072A1.563,1.563,0,0,1,242.056,384.284Z" transform="translate(-236.545 -348.033)" fill="#263238"/></g><g transform="translate(28.477 14.318)" opacity="0.3"><path d="M243.076,384.921A25.287,25.287,0,0,1,230.3,363.688c-.3-6.2,1.606-12.279,3.762-18.1a2.335,2.335,0,0,1,.878-1.314,2.228,2.228,0,0,1,2.118.33c5.645,3.215,9.065,9.343,10.885,15.579A31.431,31.431,0,0,1,249.223,373a21.294,21.294,0,0,1-6.147,11.922" transform="translate(-230.271 -344.117)"/></g><path d="M248.823,419.873c7.645,1.68,13.941,7.072,21.317,9.7,4.881,1.735,10.4,2.348,14.3,5.761-.935-2.36-3.152-3.933-5.305-5.278a95.026,95.026,0,0,0-19.322-9.223c-3.47-1.2-7.235-2.2-10.772-1.213" transform="translate(-198.778 -317.586)" fill="#455a64"/><path d="M243.4,427.053c-9.575-.155-19.657-8.307-29.188-8.793,9.974-3.22,24.255-.589,29.188,8.793" transform="translate(-204.407 -317.954)" fill="#455a64"/><path d="M242.533,407.514a31.171,31.171,0,0,1,15.308-1.042,93.035,93.035,0,0,1,14.944,4.062c-.492-3.323-3.182-5.82-5.71-8.031a39.9,39.9,0,0,0-6-4.612,13.369,13.369,0,0,0-7.2-2.03,11.384,11.384,0,0,0-7.943,4,13.183,13.183,0,0,0-3.4,7.65" transform="translate(-199.801 -321.385)" fill="#455a64"/><path d="M228.859,397.429c-6.027-5.146-15.157-4.642-23.081-4.465a188.007,188.007,0,0,1,35.8,22.306C241.9,409.669,236.473,403.929,228.859,397.429Z" transform="translate(-205.778 -321.871)" fill="#455a64"/><g transform="translate(0 70.991)" opacity="0.3"><path d="M228.859,397.429c-6.027-5.146-15.157-4.642-23.081-4.465a188.007,188.007,0,0,1,35.8,22.306C241.9,409.669,236.473,403.929,228.859,397.429Z" transform="translate(-205.778 -392.862)"/></g><path d="M244.87,394.144a67.1,67.1,0,0,1,9.27-5.388c3.173-1.442,6.132-3.738,9.2-5.4,3.973-2.151,7.415-5.142,11.062-7.809s7.652-5.075,12.116-5.782a23.836,23.836,0,0,0-11.025.637,71.181,71.181,0,0,0-10.378,4.038c-4.7,2.118-9.486,4.288-13.328,7.727s-7.32,6.833-6.913,11.974" transform="translate(-199.426 -325.69)" fill="#455a64"/><g transform="translate(42.134 101.875)"><path d="M271.072,426.651a1.177,1.177,0,0,1-.3-.131l-.836-.432c-.721-.384-1.757-.952-3.06-1.608-.645-.341-1.36-.7-2.137-1.06-.769-.381-1.6-.758-2.487-1.141a36.4,36.4,0,0,0-5.9-2.054,12.662,12.662,0,0,0-6.142-.155,17.64,17.64,0,0,0-2.6.777,13.171,13.171,0,0,0-2.1,1.079,13.433,13.433,0,0,0-2.64,2.181c-.555.594-.824.958-.849.939a1.213,1.213,0,0,1,.172-.281,9.025,9.025,0,0,1,.578-.746,12.382,12.382,0,0,1,2.608-2.3,13.108,13.108,0,0,1,2.124-1.138,17.226,17.226,0,0,1,2.637-.821,12.775,12.775,0,0,1,6.293.128,34.928,34.928,0,0,1,5.943,2.1c.886.392,1.72.78,2.485,1.174.773.377,1.485.745,2.124,1.1,1.293.685,2.311,1.286,3.014,1.706l.8.489A1.19,1.19,0,0,1,271.072,426.651Z" transform="translate(-242.018 -419.427)" fill="#263238"/></g><g transform="translate(31.849 104.35)"><path d="M233.172,421.56a2.169,2.169,0,0,1,.6.176,13.584,13.584,0,0,1,1.56.678,18.946,18.946,0,0,1,8,7.685,13.486,13.486,0,0,1,.741,1.532,2.182,2.182,0,0,1,.2.592c-.055.024-.413-.787-1.149-2a21.194,21.194,0,0,0-7.9-7.593C233.974,421.94,233.15,421.615,233.172,421.56Z" transform="translate(-233.172 -421.555)" fill="#263238"/></g><g transform="translate(10.664 75.075)"><path d="M214.95,396.377a1.9,1.9,0,0,1,.408.121l1.149.409,1.813.669c.706.263,1.473.65,2.34,1.032a55.351,55.351,0,0,1,12.466,7.942,60.86,60.86,0,0,1,5.813,5.725,64.141,64.141,0,0,1,4.126,5.227c1.093,1.549,1.922,2.839,2.49,3.731l.655,1.027a2.034,2.034,0,0,1,.213.37,1.965,1.965,0,0,1-.269-.33c-.167-.223-.41-.556-.709-.993-.6-.871-1.461-2.138-2.575-3.663s-2.515-3.288-4.166-5.16a63.526,63.526,0,0,0-5.8-5.672,58.363,58.363,0,0,0-12.347-7.984c-.857-.394-1.615-.8-2.311-1.074l-1.786-.721-1.125-.469A2.144,2.144,0,0,1,214.95,396.377Z" transform="translate(-214.95 -396.375)" fill="#263238"/></g><g transform="translate(41.458 80.059)"><path d="M257.078,401.35a3.354,3.354,0,0,1-.764-.1l-.88-.163c-.342-.066-.742-.067-1.177-.113a12.038,12.038,0,0,0-6.58,1.3,11.9,11.9,0,0,0-2.995,2.222,13.606,13.606,0,0,0-1.925,2.38,19.878,19.878,0,0,0-1.316,2.512,2.8,2.8,0,0,1,.194-.746,10.686,10.686,0,0,1,.916-1.893,12.749,12.749,0,0,1,1.907-2.474,11.653,11.653,0,0,1,9.82-3.54c.441.06.844.08,1.187.165l.877.221A3.288,3.288,0,0,1,257.078,401.35Z" transform="translate(-241.437 -400.662)" fill="#263238"/></g><g transform="translate(41.025 50.892)"><path d="M266.763,375.576a2.023,2.023,0,0,1-.363.223l-1.068.58c-.929.5-2.266,1.239-3.89,2.2s-3.52,2.16-5.547,3.609a46.388,46.388,0,0,0-6.193,5.189,15.716,15.716,0,0,0-2.533,3.28c-.627,1.2-1.227,2.368-1.778,3.487a63.2,63.2,0,0,0-2.66,6.056,36.633,36.633,0,0,0-1.294,4.265c-.245,1.025-.334,1.6-.367,1.6a2.022,2.022,0,0,1,.038-.423c.035-.277.093-.684.2-1.2a31.816,31.816,0,0,1,1.2-4.318,58.349,58.349,0,0,1,2.6-6.113c.545-1.125,1.141-2.294,1.764-3.5a15.811,15.811,0,0,1,2.585-3.362,44.878,44.878,0,0,1,6.256-5.207c2.046-1.442,3.97-2.615,5.607-3.561s3-1.641,3.951-2.106l1.1-.524A1.975,1.975,0,0,1,266.763,375.576Z" transform="translate(-241.065 -375.575)" fill="#263238"/></g><g transform="translate(33.478 59.972)"><path d="M240.969,403.3a3.9,3.9,0,0,1-.19-.807c-.112-.591-.252-1.331-.419-2.212a56.573,56.573,0,0,0-4.545-14.074c-.372-.816-.685-1.5-.934-2.05a3.909,3.909,0,0,1-.307-.77,3.861,3.861,0,0,1,.427.712c.255.467.612,1.151,1.032,2.006a47.241,47.241,0,0,1,4.564,14.134c.15.942.258,1.7.313,2.236A3.916,3.916,0,0,1,240.969,403.3Z" transform="translate(-234.573 -383.385)" fill="#263238"/></g><path d="M243.149,385.634a25.977,25.977,0,0,0-3.113-10.337,34.122,34.122,0,0,0-23.129-17.248l21.413,31.915,2.765,5.7A16.372,16.372,0,0,0,243.149,385.634Z" transform="translate(-203.968 -327.533)" fill="#455a64"/><g transform="translate(19.702 120.999)"><g transform="translate(0.403)"><rect width="49.792" height="8.826" fill="#025497"/></g><g transform="translate(4.122 7.073)"><path d="M226.269,441.959l4.24,27.385h33.056l5.059-27.385Z" transform="translate(-226.269 -441.959)" fill="#025497"/></g><g transform="translate(0 8.662)"><path d="M272.891,443.5c0,.1-11.231.176-25.083.176s-25.085-.078-25.085-.176,11.229-.174,25.085-.174S272.891,443.4,272.891,443.5Z" transform="translate(-222.724 -443.325)" fill="#263238"/></g></g></g><g transform="translate(131.141 31.759)"><g transform="translate(28.748 73.399)"><path d="M535.148,525.44c-170.257-92.483-354.5-430.549-354.5-430.549l-41.183,5.467c66.965,140.025,140.312,260.559,234.714,361.2,38.077,40.593,64.76,64.4,64.76,64.4l82.117-.639Z" transform="translate(-139.463 -94.891)" fill="#025497"/><g transform="translate(1.131 0.778)" opacity="0.3"><path d="M535.975,525.331C365.85,432.58,181.619,95.56,181.619,95.56l-41.183,5.467C207.4,241.051,279.617,360.808,375.15,462.224c38.163,40.513,63.628,63.62,63.628,63.62l82.117-.639Z" transform="translate(-140.436 -95.56)"/></g></g><path d="M251.454,99.727,114.736,118.354l20.7-84.23,25.721-2.365Z" transform="translate(-114.736 -31.759)" fill="#025497"/><path d="M251.454,99.727,114.736,118.354l20.7-84.23,25.721-2.365Z" transform="translate(-114.736 -31.759)" opacity="0.3"/><path d="M249.975,99.347,137.252,114.721l20.241-82.962Z" transform="translate(-111.074 -31.759)" fill="#025497"/><path d="M206.792,93.957l-43.061,6.12C229.588,242.985,278.265,312,367.378,417.353c41.161,48.66,97.1,108.238,97.1,108.238l72.216.515C331.172,358.023,206.792,93.957,206.792,93.957Z" transform="translate(-106.768 -21.644)" fill="#025497"/></g><g transform="translate(66.982 114.72)"><g transform="translate(0 32.491)"><g transform="translate(0 17.839)"><path d="M73.892,180.752a92.232,92.232,0,0,1-9.546-12.713,32.19,32.19,0,0,1-4.792-15.008c-.027-.8.264-6.391,1.035-6.621.551-.165.979,4.76,1.436,5.11,4.354,3.339,7.213,8.331,8.88,13.559a71.976,71.976,0,0,1,2.988,15.675" transform="translate(-59.552 -146.406)" fill="#263238"/></g><g transform="translate(3.45 1.37)"><path d="M74.609,133.979l1.164-.406a23.793,23.793,0,0,1,29.6,12.841c4.663,10.551,9.68,22.269,11.64,28.118,4.058,12.11-6.747,17.832-6.747,17.832-.027.01,4.289,6.4,4.289,6.4l-3.552,14.757-25.778-6.978L65.243,164.523C59.8,152.38,62.32,139.089,74.609,133.979Z" transform="translate(-62.519 -132.24)" fill="#ffbf9d"/></g><g transform="translate(33.278 61.494)"><path d="M106.095,183.954a31.6,31.6,0,0,1-17.92,1.2s6.432,8.29,19.766,1.573Z" transform="translate(-88.175 -183.954)" fill="#ff9a6c"/></g><g transform="translate(43.252 25.301)"><path d="M100.24,153.9a1.824,1.824,0,0,1-1.054,2.317,1.744,1.744,0,0,1-2.317-.934,1.825,1.825,0,0,1,1.052-2.317A1.746,1.746,0,0,1,100.24,153.9Z" transform="translate(-96.753 -152.824)" fill="#263238"/></g><g transform="translate(38.445 20.846)"><path d="M99.472,149.909c-.135.3-1.777-.212-3.627.441-1.858.624-2.886,2.052-3.166,1.9-.134-.066-.058-.548.384-1.185a5,5,0,0,1,2.438-1.8,4.8,4.8,0,0,1,2.986-.07C99.207,149.434,99.541,149.772,99.472,149.909Z" transform="translate(-92.619 -148.991)" fill="#263238"/></g><g transform="translate(27.123 32.077)"><path d="M86.367,159.727a1.823,1.823,0,0,1-1.055,2.316A1.745,1.745,0,0,1,83,161.11a1.826,1.826,0,0,1,1.052-2.317A1.747,1.747,0,0,1,86.367,159.727Z" transform="translate(-82.88 -158.652)" fill="#263238"/></g><g transform="translate(20.732 27.613)"><path d="M84.238,155.729c-.136.3-1.779-.209-3.629.441-1.858.624-2.886,2.052-3.166,1.9-.134-.066-.059-.546.385-1.185a5.007,5.007,0,0,1,2.437-1.8,4.819,4.819,0,0,1,2.986-.07C83.972,155.254,84.306,155.592,84.238,155.729Z" transform="translate(-77.383 -154.812)" fill="#263238"/></g><g transform="translate(32.958 25.303)"><path d="M94.141,167.972a12.984,12.984,0,0,1,2.819-1.593c.457-.214.872-.464.838-.815a2.553,2.553,0,0,0-.8-1.292l-2.657-3.115c-3.733-4.452-6.611-8.179-6.431-8.328s3.353,3.339,7.085,7.791q1.364,1.653,2.605,3.157a2.909,2.909,0,0,1,.894,1.771,1.257,1.257,0,0,1-.537.963,3.425,3.425,0,0,1-.765.393A12.827,12.827,0,0,1,94.141,167.972Z" transform="translate(-87.899 -152.825)" fill="#263238"/></g><g transform="translate(18.638 23.168)"><path d="M82.851,151.609c.015.56-1.717.9-3.561,1.85-1.865.9-3.2,2.09-3.617,1.73-.191-.176-.086-.745.373-1.456a6.216,6.216,0,0,1,2.4-2.078,6,6,0,0,1,3.068-.65C82.339,151.076,82.837,151.345,82.851,151.609Z" transform="translate(-75.582 -150.989)" fill="#263238"/></g><g transform="translate(35.16 15.024)"><path d="M96.319,144.656c-.1.573-1.6.908-3.143,1.773-1.566.815-2.672,1.892-3.2,1.66-.243-.121-.264-.624.091-1.317A5.6,5.6,0,0,1,95.177,144C95.946,144.091,96.352,144.385,96.319,144.656Z" transform="translate(-89.794 -143.984)" fill="#263238"/></g><g transform="translate(3.602 42.237)"><path d="M69.32,167.391c-.237-.017-9.139.441-6,8.592s11.561,3.291,11.486,3.053S69.32,167.391,69.32,167.391Z" transform="translate(-62.65 -167.391)" fill="#ffbf9d"/></g><g transform="translate(6.03 45.837)"><path d="M69.9,176.429c-.045-.013-.1.153-.3.357a1.521,1.521,0,0,1-1.053.43c-.982.015-2.235-1.072-2.84-2.526a5.04,5.04,0,0,1-.386-2.186,1.758,1.758,0,0,1,.649-1.5.775.775,0,0,1,.988.066c.2.186.208.369.257.366.03.012.122-.2-.073-.515a.974.974,0,0,0-.517-.387,1.149,1.149,0,0,0-.865.094,2.142,2.142,0,0,0-1,1.836,5.159,5.159,0,0,0,.383,2.461c.685,1.623,2.117,2.836,3.427,2.723a1.628,1.628,0,0,0,1.216-.716C69.962,176.631,69.935,176.433,69.9,176.429Z" transform="translate(-64.738 -170.487)" fill="#ff9a6c"/></g><g transform="translate(0.319)"><path d="M95.237,135.227c1.028-1.245-4.6-3.944-8.41-4.132-5.759-.285-13.754,1.3-17.752,4.354-4.813,3.68-8.25,8.157-9.021,14.165a34.357,34.357,0,0,0,2.861,17.731,10.422,10.422,0,0,0,3.107,4.51c1.844,1.347,4.469,1.618,5.353,4.133a3.658,3.658,0,0,0,1.824,2.146c2.111.994,3.343-1.21,3.59-3.031.528-3.888-.774-7.765-2.059-11.472a25.554,25.554,0,0,0-3.567-7.522c-.932-1.2-2.076-2.224-2.941-3.472a5.25,5.25,0,0,1-1.028-4.283,5.464,5.464,0,0,1,.4-.928,9.112,9.112,0,0,1,7.772-4.923c5.214-.189,13.982-.86,15.408-3.219,2.052-3.394,2.179-5.127,2.179-5.127Z" transform="translate(-59.826 -131.062)" fill="#263238"/></g><g transform="translate(33.834 43.839)"><path d="M88.739,168.775c.272-.128,1.023,1.732,3.146,2.415s4.023-.317,4.142-.063c.073.107-.3.538-1.125.9a4.993,4.993,0,0,1-3.416.158,4.35,4.35,0,0,1-2.518-2.073C88.584,169.36,88.608,168.814,88.739,168.775Z" transform="translate(-88.652 -168.769)" fill="#263238"/></g></g><g transform="translate(103.877)"><path d="M174.949,143.367c.459-.253,1.118-10.164-1.363-15.332s-12.331-14.6-12.331-14.6-3.525-5.919-6.211-8.527a2.616,2.616,0,0,0-3.333-.273h0s-.832-2.207-2.582-1.3c-.708.366.288,9.109,1.951,11.874s6.653,10.617,6.653,10.617l3.827,9.947-1.148,2.161Z" transform="translate(-148.898 -103.116)" fill="#ffbf9d"/><g transform="translate(2.796 1.905)"><path d="M161.01,121.039a9.514,9.514,0,0,1-2.192-1.8,27.433,27.433,0,0,1-6.957-11.693,9.587,9.587,0,0,1-.541-2.787c.193-.058,1.071,4.222,3.8,8.762C157.81,118.082,161.153,120.9,161.01,121.039Z" transform="translate(-151.303 -104.754)" fill="#ff9a6c"/></g></g><g transform="translate(106.692 383.985)"><g transform="translate(0 0)"><path d="M185.754,433.935,175.942,453.7l-.109,1.986s26.116,10.245,26.322,15.107l-50.836-.958.176-12.774,8.872-23.672Z" transform="translate(-151.319 -433.389)" fill="#263238"/><g transform="translate(7.321 19.72)"><path d="M159.133,450.429a2.075,2.075,0,0,0-1.48,2.342,2,2,0,0,0,2.309,1.487,2.19,2.19,0,0,0,1.554-2.488,2.072,2.072,0,0,0-2.573-1.281" transform="translate(-157.616 -450.35)" fill="#e0e0e0"/></g><g transform="translate(0.001 32.329)"><path d="M151.32,465.313l.217-4.117,48.658,2.458s2.245,1.028,1.959,2.617Z" transform="translate(-151.32 -461.196)" fill="#455a64"/></g><g transform="translate(20.658 21.809)"><path d="M173.773,452.392c-.013.249-1.257.337-2.493,1.113-1.257.743-1.907,1.807-2.133,1.7-.228-.052.17-1.53,1.683-2.442S173.832,452.166,173.773,452.392Z" transform="translate(-169.088 -452.147)" fill="#fff"/></g><g transform="translate(27.201 24.254)"><path d="M178.148,454.356c.052.242-1.031.643-1.894,1.678-.893,1.008-1.128,2.139-1.374,2.124-.234.035-.378-1.422.719-2.687S178.148,454.12,178.148,454.356Z" transform="translate(-174.716 -454.25)" fill="#fff"/></g><g transform="translate(33.262 26.55)"><path d="M180.209,460.473c-.227.049-.549-1.2.114-2.545s1.835-1.867,1.936-1.658c.136.207-.631.922-1.158,2.037C180.546,459.408,180.456,460.453,180.209,460.473Z" transform="translate(-179.928 -456.225)" fill="#fff"/></g></g></g><g transform="translate(7.496 389.17)"><path d="M100.433,438.4,90.621,458.16l-.109,1.986s26.116,10.245,26.322,15.107L66,474.3l.176-12.775,8.872-23.672Z" transform="translate(-65.999 -437.848)" fill="#263238"/><g transform="translate(7.32 19.721)"><path d="M73.812,454.889a2.075,2.075,0,0,0-1.48,2.342,2,2,0,0,0,2.309,1.487A2.19,2.19,0,0,0,76.2,456.23a2.072,2.072,0,0,0-2.573-1.281" transform="translate(-72.295 -454.81)" fill="#e0e0e0"/></g><g transform="translate(0 32.33)"><path d="M66,469.773l.217-4.117,48.658,2.458s2.245,1.028,1.959,2.617Z" transform="translate(-65.999 -465.656)" fill="#455a64"/></g><g transform="translate(20.657 21.81)"><path d="M88.452,456.852c-.013.249-1.257.337-2.493,1.113-1.257.743-1.907,1.807-2.133,1.7-.228-.052.17-1.53,1.683-2.442S88.511,456.626,88.452,456.852Z" transform="translate(-83.767 -456.607)" fill="#fff"/></g><g transform="translate(27.202 24.255)"><path d="M92.828,458.816c.052.242-1.031.643-1.894,1.678-.893,1.008-1.127,2.139-1.374,2.124-.234.035-.378-1.422.718-2.687S92.827,458.58,92.828,458.816Z" transform="translate(-89.396 -458.71)" fill="#fff"/></g><g transform="translate(33.261 26.551)"><path d="M94.888,464.933c-.227.049-.549-1.2.114-2.545s1.833-1.867,1.935-1.658c.136.207-.63.922-1.158,2.037C95.225,463.868,95.136,464.913,94.888,464.933Z" transform="translate(-94.607 -460.685)" fill="#fff"/></g></g><g transform="translate(7.169 220.256)"><g transform="translate(0)"><path d="M110.928,292.562c0,2.116,4.566,48.7,4.566,48.7L102.273,387.6S89.25,418.125,83.77,428.35s-18.052,48.829-18.052,48.829l29.673,5.875s35.733-68.488,42.309-79.066,31.829-47.616,36.912-75.837c1.817-10.089,2.54-35.588,2.54-35.588H110.928Z" transform="translate(-65.718 -292.562)" fill="#263238"/><path d="M146.832,350.281l32.5,36.224L152.05,465.491l32.961,6.438c0-1.058,29.961-78.139,33.776-91.4,2.147-7.464-16.672-34.722-25.512-44.809-6.907-7.883-21.173-23.565-22.268-24.622s-7.371-10.535-7.371-10.535l-16.8,49.716" transform="translate(-52.526 -291.26)" fill="#263238"/><g transform="translate(99.05 13.409)"><path d="M163.626,304.1a13.642,13.642,0,0,1-.009,2.079c-.036,1.337-.164,3.269-.385,5.652a124.183,124.183,0,0,1-3.187,18.411,131.241,131.241,0,0,1-5.886,17.737c-.918,2.209-1.7,3.977-2.289,5.18a13.53,13.53,0,0,1-.953,1.846,13.6,13.6,0,0,1,.737-1.942c.517-1.23,1.243-3.021,2.108-5.243a154.269,154.269,0,0,0,5.7-17.727,144.514,144.514,0,0,0,3.348-18.309c.274-2.368.466-4.291.574-5.621A13.635,13.635,0,0,1,163.626,304.1Z" transform="translate(-150.913 -304.095)" fill="#455a64"/></g><path d="M107.561,325.912h55.145V322.76l-55.368-2.118Z" transform="translate(-58.949 -287.995)" opacity="0.3"/><g transform="translate(126.803 92.408)"><path d="M187.845,372.128c.012.184-3.036.4-6.636,1.389-3.609.972-6.34,2.337-6.424,2.172a23.149,23.149,0,0,1,13.06-3.561Z" transform="translate(-174.783 -372.044)" fill="#455a64"/></g><path d="M155.038,356.166s6.012-21.618,5.211-30.991c0,0-4.148,19.146-9.332,26.4h0Z" transform="translate(-51.862 -287.258)" opacity="0.3"/></g><g transform="translate(0 184.673)"><path d="M95.7,457.274c.03.012-.413-.05-1.17-.178l-3.225-.563-10.623-1.973c-4.146-.793-7.893-1.537-10.6-2.1-1.353-.284-2.447-.522-3.2-.7a4.69,4.69,0,0,1-1.158-.337,4.674,4.674,0,0,1,1.2.106c.767.107,1.873.283,3.237.512,2.728.459,6.489,1.137,10.635,1.93s7.89,1.553,10.593,2.147S95.772,457.14,95.7,457.274Z" transform="translate(-65.718 -451.402)" fill="#455a64"/></g><g transform="translate(99.523 174.215)"><path d="M181.3,448.279c.03.012-.413-.05-1.17-.178l-3.225-.563-10.623-1.973c-4.146-.793-7.893-1.537-10.6-2.1-1.353-.284-2.447-.522-3.2-.7a4.694,4.694,0,0,1-1.158-.337,4.671,4.671,0,0,1,1.2.106c.766.107,1.873.283,3.237.512,2.728.459,6.489,1.137,10.635,1.93s7.89,1.553,10.593,2.147S181.374,448.143,181.3,448.279Z" transform="translate(-151.32 -442.408)" fill="#455a64"/></g></g><g transform="translate(21.136 32.96)"><path d="M137.3,211.506s20.316,33.6,28.13,61.733,3.125,32.5,3.125,32.5l-33.756-2.5-8.192-37.194Z" transform="translate(-69.781 -118.448)" fill="#e0e0e0"/><path d="M79.771,193.87l-.586-3.267,32.1-3.38,3.123,2.464Z" transform="translate(-77.494 -122.397)" fill="#e0e0e0"/><path d="M140.035,200.166c2.2,1.438,20,38.648,24.6,62.051,2.965,15.111,5.181,39.66,6.045,46.914,1.007,8.458.072,35.192-.867,35.045L97.77,341.53l9.293-64.011S85,246.59,79.977,230.7s-.063-30.729-.063-30.729l-.352-6.311,32.916-4.707Z" transform="translate(-77.731 -122.115)" fill="#263238"/><g transform="translate(33.787 100.424)"><path d="M106.8,254.739c-.158-.055,2.592-8.36,6.14-18.547s6.554-18.406,6.712-18.35-2.59,8.358-6.14,18.55S106.956,254.8,106.8,254.739Z" transform="translate(-106.791 -217.842)" fill="#455a64"/></g><g transform="translate(3.623)"><path d="M80.847,228.624c3.008,5.455,10.164,13.23,21.988,12.839s57.2-43.335,63.633-49.728,22.139-52.8,22.139-52.8l-19.164-7.164L140.306,177.5l-32.3,23.128c-1.722-.145-17.607,1.794-22.752,9.337" transform="translate(-80.847 -131.415)" fill="#263238"/><g transform="translate(0.001)"><path d="M85.259,210.017s.078-.121.25-.346l.777-1c.4-.386.882-.894,1.514-1.424a19.9,19.9,0,0,1,2.351-1.631,33.57,33.57,0,0,1,7.3-3.134,48.685,48.685,0,0,1,4.888-1.232,32.841,32.841,0,0,1,5.689-.731l-.11.03,32.248-23.193-.064.069,29.1-45.754.128-.2.224.084,19.165,7.158.274.1-.094.277c-1.33,3.9-2.786,8.041-4.289,12.211-3.591,9.911-7.218,19.551-11.243,28.654-1.015,2.272-2.058,4.51-3.2,6.677-.578,1.08-1.159,2.153-1.828,3.176-.316.521-.691,1.01-1.058,1.5a15.641,15.641,0,0,1-1.259,1.328c-3.431,3.337-6.85,6.532-10.206,9.63-13.457,12.348-25.928,23.122-37.156,31.2a93.168,93.168,0,0,1-8.28,5.368,33.005,33.005,0,0,1-4.1,1.986,15.211,15.211,0,0,1-2.081.672,9.036,9.036,0,0,1-2.115.185,22.878,22.878,0,0,1-13.317-4.1,25.541,25.541,0,0,1-6.3-6.258,19.246,19.246,0,0,1-1.621-2.645s.153.22.424.664.692,1.1,1.3,1.91a26.04,26.04,0,0,0,6.332,6.135,22.706,22.706,0,0,0,13.183,3.953,9.483,9.483,0,0,0,4.066-.855,32.963,32.963,0,0,0,4.04-1.985,93.4,93.4,0,0,0,8.22-5.381c11.167-8.1,23.6-18.9,37.027-31.264,3.347-3.1,6.762-6.3,10.18-9.634a12.54,12.54,0,0,0,2.232-2.731c.652-1,1.228-2.064,1.8-3.133,1.128-2.151,2.165-4.381,3.174-6.646,4.005-9.08,7.626-18.716,11.215-28.619,1.5-4.167,2.959-8.3,4.288-12.2l.18.379-19.161-7.17.352-.117-29.177,45.7-.026.041-.038.028L108.11,200.817l-.042.03H108a33.344,33.344,0,0,0-5.6.691,49.2,49.2,0,0,0-4.87,1.189,34.054,34.054,0,0,0-7.283,3.039,20.416,20.416,0,0,0-2.357,1.584c-.636.514-1.122,1.007-1.532,1.381l-.806.968C85.363,209.912,85.259,210.017,85.259,210.017Z" transform="translate(-80.848 -131.465)" fill="#455a64"/></g></g><g transform="translate(28.76 69.363)"><path d="M103.711,214.82a2.93,2.93,0,0,1-.3-.906c-.157-.591-.333-1.458-.5-2.537a40.135,40.135,0,0,1,1.077-16.938c.3-1.05.587-1.888.818-2.453a2.906,2.906,0,0,1,.408-.86,34.236,34.236,0,0,1-.813,3.422,49.226,49.226,0,0,0-1.066,16.776A34.678,34.678,0,0,1,103.711,214.82Z" transform="translate(-102.467 -191.126)" fill="#455a64"/></g><g transform="translate(10.948 105.417)"><path d="M104.084,250.923c-.109.017-.4-1.88-1.239-4.845a47.27,47.27,0,0,0-12.063-20.5c-2.181-2.176-3.7-3.348-3.632-3.436a5.735,5.735,0,0,1,1.121.753,31.255,31.255,0,0,1,2.81,2.375,42.936,42.936,0,0,1,12.179,20.7,31.2,31.2,0,0,1,.712,3.61A5.821,5.821,0,0,1,104.084,250.923Z" transform="translate(-87.147 -222.137)" fill="#455a64"/></g><g transform="translate(29.317 144.972)"><path d="M110.325,256.159a33.878,33.878,0,0,1-3.17,7.043,33.876,33.876,0,0,1-4.2,6.484c-.146-.1,1.64-3.043,3.668-6.773S110.166,256.088,110.325,256.159Z" transform="translate(-102.947 -256.158)" fill="#455a64"/></g><g transform="translate(19.838 187.016)"><path d="M167.9,292.321a3.538,3.538,0,0,1,.063.664c.022.485.051,1.124.088,1.929.048,1.686.1,4.148.079,7.251-.026,6.206-.258,14.975-.815,25.219l-.015.266h-.269c-5.749.007-12.047-.133-18.618-.329-14.824-.458-28.23-1.132-37.93-1.664L99,324.968l-3.12-.227-.81-.076a.964.964,0,0,1-.274-.047.977.977,0,0,1,.278-.015l.814.015,3.126.114,11.493.5c9.7.421,23.111,1.028,37.927,1.486,6.568.2,12.861.349,18.6.366l-.284.266c.6-10.23.908-18.99,1.032-25.188.069-3.1.072-5.559.084-7.243,0-.8,0-1.444,0-1.929A3.468,3.468,0,0,1,167.9,292.321Z" transform="translate(-94.794 -292.321)" fill="#455a64"/></g><path d="M113.642,286.907v4.509H146.1l1.6-12.537-2.653,8.028Z" transform="translate(-71.89 -107.491)" opacity="0.3"/><g transform="translate(37.849 169.114)"><path d="M110.287,287.225c.015-.009.266-.019.734-.029l2.028-.031,7.449-.08c6.317-.063,15.075-.144,25.1-.156l-.286.22c.785-2.966,1.6-6.063,2.445-9.242.069-.257.136-.513.2-.76l.293.38-32.856-.1.178-.108c-1.61,3.043-2.9,5.488-3.825,7.23-.439.821-.791,1.474-1.058,1.972-.246.456-.381.7-.4.708a6.1,6.1,0,0,1,.3-.653c.24-.5.555-1.145.949-1.961.886-1.8,2.13-4.328,3.677-7.475l.053-.108h.124l32.856-.1h.394l-.1.381c-.065.246-.134.5-.2.76-.845,3.176-1.67,6.274-2.458,9.237l-.058.221h-.228c-10.173-.012-19.067-.092-25.355-.156l-7.357-.08-1.949-.031A5.3,5.3,0,0,1,110.287,287.225Z" transform="translate(-110.286 -276.923)" fill="#455a64"/></g></g></g></g></svg>