<svg xmlns="http://www.w3.org/2000/svg" width="147.011" height="86.113" viewBox="0 0 147.011 86.113"><g transform="translate(-0.999 0.062)"><path d="M62.579.432c7.63,2.1,27.386,10.146,25.035,36.855A34.409,34.409,0,0,1,59.955,64.9l-17.291-.016a5.253,5.253,0,0,1-4.712-7.567S43.9,43.341,44.235,42.651a5.251,5.251,0,0,1,4.733-2.972c2.9,0,6.861.069,6.861.069s5.306.915,5.853-5.866l.167-2.093a7.774,7.774,0,0,0-4.688-8.111l-2.292-.172c-3.855-.151-1.929-4.489-1.926-4.51L58.422,3.976S59.661-1.439,62.579.432Z" transform="translate(60.203 0.167)" fill="#9b8ffa" fill-rule="evenodd"/><path d="M11.183,61.606a6.309,6.309,0,0,1,.334-6.293C12.642,53.588,31.35,6.229,31.35,6.229A8.779,8.779,0,0,1,39.9-.061h16.8a4.561,4.561,0,0,1,4.205,6.3S31.342,82.287,31.05,82.94A5.253,5.253,0,0,1,21.4,82.8S12.226,63.649,11.183,61.606Z" transform="translate(15.706)" fill="#8d70f8" fill-rule="evenodd"/><path d="M25.433,61.606a6.309,6.309,0,0,1,.334-6.293C26.892,53.588,43.5,6.229,43.5,6.229A8.779,8.779,0,0,1,52.052-.061h16.8a4.561,4.561,0,0,1,4.2,6.3S43.488,82.287,43.191,82.94a5.253,5.253,0,0,1-9.652-.138S26.476,63.649,25.433,61.606Z" transform="translate(39.263 0)" fill="#9b8ffa" fill-rule="evenodd"/><path d="M35.658-.062a5.253,5.253,0,0,1,4.863,7.238L25.854,40.7A5.253,5.253,0,0,1,16,40.526C15.86,40.1,1.313,6.237,1.313,6.237A4.908,4.908,0,0,1,1,4.509,4.4,4.4,0,0,1,5.2-.062Z" transform="translate(0 0.001)" fill="#613cea" fill-rule="evenodd"/></g></svg>